Coordinates
version=1
nRows=28
nColumns=33
inDegrees=yes

Units are S.I. units (second, meters, Newtons, ...)
Angles are in degrees.

endheader
time	ground_thorax_rot_x	ground_thorax_rot_y	ground_thorax_rot_z	ground_thorax_tx	ground_thorax_ty	ground_thorax_tz	clav_prot_r	clav_elev_r	scapula_abduction_r	scapula_elevation_r	scapula_upward_rot_r	scapula_winging_r	shoulder_elv_r	plane_of_elev_r	axial_rot_r	elbow_flexion_r	pro_sup_r	wrist_flex_r	wrist_dev_r	clav_prot_l	clav_elev_l	scapula_abduction_l	scapula_elevation_l	scapula_upward_rot_l	scapula_winging_l	shoulder_elv_l	plane_of_elev_l	axial_rot_l	elbow_flexion_l	pro_sup_l	wrist_flex_l	wrist_dev_l	
9.6700	-38.212333	-1.733275	-1.653984	-6.184131	825.964681	-49.164492	16.551030	-45.000000	44.291435	-45.000000	-6.820297	264.481554	-1909.124023	157.635858	6.311037	1797.975722	162.741348	14.748531	15.701910	9.654620	28.443519	-37.001154	-45.000000	-45.000000	4032.759771	-7099.821109	21.710617	-180.000000	1783.049118	-344.995322	1.353405	-5.963827	
9.6800	-38.193774	-1.405237	-1.998544	-3.562418	825.008405	-49.013507	16.394570	-45.000000	44.619554	-45.000000	-5.762300	264.490205	-1909.219210	157.660587	6.177995	1798.002597	163.307301	14.667008	15.738567	10.068833	28.481761	-37.397375	-45.000000	-45.000000	4032.698439	-7099.799127	21.763709	-180.000000	1783.161196	-343.196820	1.487963	-5.889150	
9.6900	-38.174279	-1.039028	-2.351479	-0.899766	824.014595	-48.861781	16.157035	-45.000000	44.838130	-45.000000	-4.739803	264.560197	-1909.308112	157.694017	6.085018	1798.031096	163.907442	14.596810	15.756068	10.486765	28.513532	-37.839921	-45.000000	-45.000000	4032.644223	-7099.779499	21.812890	-180.000000	1783.272802	-341.485898	1.625324	-5.829331	
9.7000	-38.149636	-0.618824	-2.731907	1.799833	822.983623	-48.708692	15.817856	-45.000000	44.953466	-45.000000	-3.714969	264.698748	-1909.384795	157.750100	6.032132	1798.058724	164.542732	14.537606	15.756840	10.915742	28.537775	-38.336344	-45.000000	-45.000000	4032.593792	-7099.764553	21.859754	-180.000000	1783.387361	-339.819840	1.790733	-5.790026	
9.7100	-38.123235	-0.167450	-3.125969	4.532288	821.916312	-48.553820	15.403539	-45.000000	44.994931	-45.000000	-2.706272	264.879485	-1909.462091	157.814573	6.020242	1798.087317	165.208782	14.489541	15.738385	11.357978	28.559877	-38.863177	-45.000000	-45.000000	4032.546184	-7099.748673	21.905378	-180.000000	1783.507263	-338.150164	1.960579	-5.757475	
9.7200	-38.090322	0.335385	-3.562207	7.293589	820.813919	-48.397166	14.914440	-45.000000	45.000000	-45.000000	-1.643037	265.084312	-1909.538270	157.894369	6.046374	1798.116003	165.905073	14.450198	15.705988	11.816764	28.577837	-39.430937	-45.000000	-45.000000	4032.501523	-7099.732936	21.952860	-180.000000	1783.635910	-336.433036	2.154378	-5.734606	
9.7300	-38.055990	0.842485	-3.998500	10.079571	819.678226	-48.239231	14.405202	-45.000000	45.000000	-45.000000	-0.592023	265.280372	-1909.625184	157.966269	6.084507	1798.148196	166.618379	14.415240	15.663978	12.292655	28.601929	-40.003498	-45.000000	-45.000000	4032.456706	-7099.717383	22.000537	-180.000000	1783.778146	-334.632741	2.335815	-5.704672	
9.7400	-38.021505	1.318884	-4.408153	12.885920	818.511408	-48.080905	13.949874	-45.000000	45.000000	-45.000000	0.368481	265.487379	-1909.713542	158.029496	6.065938	1798.182438	167.324259	14.373390	15.635133	12.787949	28.638929	-40.554914	-45.000000	-45.000000	4032.406567	-7099.708035	22.043392	-180.000000	1783.933920	-332.777558	2.508730	-5.673161	
9.7500	-37.988931	1.760358	-4.784007	15.707897	817.315680	-47.923284	13.542407	-45.000000	45.000000	-45.000000	1.238572	265.686822	-1909.812556	158.072706	6.018094	1798.221187	168.024504	14.328156	15.608353	13.290172	28.685534	-41.082276	-45.000000	-45.000000	4032.356223	-7099.699424	22.083012	-180.000000	1784.099978	-330.878544	2.651570	-5.630221	
9.7600	-37.950115	2.223135	-5.181948	18.540568	816.093045	-47.767346	13.143870	-45.000000	45.000000	-45.000000	2.118163	265.892339	-1909.908919	158.119174	5.969866	1798.257881	168.730111	14.283617	15.583933	13.794372	28.731205	-41.626872	-45.000000	-45.000000	4032.308372	-7099.692619	22.120421	-180.000000	1784.277649	-328.936727	2.808673	-5.593144	
9.7700	-37.904584	2.718863	-5.609105	21.378650	814.845036	-47.613769	12.699575	-45.000000	45.000000	-45.000000	3.049397	266.080287	-1910.011860	158.162223	5.965492	1798.296176	169.455875	14.245648	15.548297	14.292564	28.772825	-42.194716	-45.000000	-45.000000	4032.265339	-7099.680578	22.159853	-180.000000	1784.472998	-326.908372	2.974491	-5.554597	
9.7800	-37.854046	3.225636	-6.052502	24.216865	813.572636	-47.462728	12.258700	-45.000000	45.000000	-45.000000	3.979794	266.279693	-1910.110461	158.212352	5.964899	1798.330890	170.190094	14.211845	15.514076	14.796420	28.816312	-42.764131	-45.000000	-45.000000	4032.221318	-7099.665278	22.198749	-180.000000	1784.688621	-324.795107	3.162592	-5.523793	
9.7900	-37.802034	3.737144	-6.503140	27.049794	812.276063	-47.313969	11.796893	-45.000000	45.000000	-45.000000	4.922460	266.473273	-1910.215803	158.263741	5.990697	1798.369047	170.937638	14.185257	15.467809	15.295696	28.857013	-43.323716	-45.000000	-45.000000	4032.176583	-7099.639060	22.242014	-180.000000	1784.922953	-322.585034	3.359190	-5.491028	
9.8000	-37.754728	4.213841	-6.926898	29.872208	810.955000	-47.166784	11.380219	-45.000000	45.000000	-45.000000	5.794465	266.683808	-1910.318526	158.321554	6.010125	1798.404086	171.683819	14.163785	15.421416	15.783823	28.895645	-43.838025	-45.000000	-45.000000	4032.119423	-7099.607611	22.284165	-180.000000	1785.173572	-320.310341	3.564421	-5.459388	
9.8100	-37.719511	4.629964	-7.294347	32.678761	809.608649	-47.020214	11.001370	-45.000000	45.000000	-45.000000	6.588012	266.886235	-1910.430439	158.375144	6.056790	1798.442997	172.433047	14.148860	15.366032	16.223838	28.920445	-44.277051	-45.000000	-45.000000	4032.042929	-7099.565130	22.327956	-180.000000	1785.434787	-317.984245	3.758663	-5.413676	
9.8200	-37.703133	4.947294	-7.575128	35.464013	808.236202	-46.873027	10.728289	-45.000000	45.000000	-45.000000	7.216815	267.113403	-1910.538484	158.433889	6.086750	1798.478412	173.166609	14.136875	15.314576	16.614936	28.932942	-44.605333	-45.000000	-45.000000	4031.936061	-7099.516184	22.367876	-180.000000	1785.699889	-315.664867	3.946327	-5.360275	
9.8300	-37.708135	5.165744	-7.763169	38.222203	806.836866	-46.723894	10.564120	-45.000000	45.000000	-45.000000	7.701284	267.336991	-1910.656007	158.482493	6.116962	1798.520951	173.885231	14.127260	15.260231	16.946193	28.928806	-44.822092	-45.000000	-45.000000	4031.801948	-7099.459415	22.409472	-180.000000	1785.962617	-313.383328	4.103435	-5.280666	
9.8400	-37.730094	5.299698	-7.876131	40.947383	805.410173	-46.571304	10.465180	-45.000000	45.000000	-45.000000	8.044548	267.578597	-1910.768772	158.535815	6.151224	1798.555953	174.589341	14.121261	15.206054	17.220836	28.908185	-44.939791	-45.000000	-45.000000	4031.635175	-7099.397781	22.444615	-180.000000	1786.223868	-311.164289	4.253629	-5.196540	
9.8500	-37.763099	5.383931	-7.942757	43.633452	803.956123	-46.413656	10.368785	-45.000000	45.000000	-45.000000	8.328555	267.812581	-1910.886425	158.587091	6.222408	1798.593560	175.292075	14.119579	15.143568	17.437329	28.867621	-44.988835	-44.999999	-45.000000	4031.445034	-7099.330085	22.479532	-180.000000	1786.487407	-308.984558	4.397630	-5.106081	
9.8600	-37.801302	5.449045	-7.994742	46.274542	802.475511	-46.249166	10.228059	-45.000000	45.000000	-45.000000	8.583254	268.062500	-1910.998598	158.654872	6.321196	1798.627561	175.995675	14.121988	15.073593	17.617832	28.812340	-45.000000	-44.999998	-45.000000	4031.236438	-7099.260253	22.507961	-180.000000	1786.756811	-306.818025	4.566459	-5.033881	
9.8700	-37.844128	5.508081	-8.036546	48.865388	800.970145	-46.075974	10.093411	-45.000000	45.000000	-45.000000	8.827008	268.304059	-1911.119027	158.719560	6.427713	1798.675169	176.691758	14.123876	14.997949	17.787997	28.750659	-45.000000	-44.999997	-45.000000	4031.025123	-7099.199301	22.536262	-180.000000	1787.032306	-304.646507	4.736229	-4.957067	
9.8800	-37.885916	5.579040	-8.089506	51.401807	799.443082	-45.892142	9.911358	-45.000000	45.000000	-45.000000	9.073007	268.559771	-1911.233902	158.801333	6.556762	1798.720784	177.383680	14.127976	14.918342	17.949952	28.683944	-45.000000	-44.999995	-45.000000	4030.805957	-7099.142799	22.555870	-180.000000	1787.316316	-302.439366	4.939739	-4.906930	
9.8900	-37.928721	5.653529	-8.138376	53.880915	797.899004	-45.695820	9.733943	-45.000000	45.000000	-45.000000	9.308721	268.807626	-1911.352666	158.883448	6.700587	1798.774506	178.062035	14.132156	14.837338	18.105298	28.614478	-45.000000	-44.999991	-45.000000	4030.584624	-7099.095079	22.572596	-180.000000	1787.608819	-300.175855	5.155030	-4.865299	
9.9000	-37.969627	5.734313	-8.187781	56.301164	796.344356	-45.485418	9.549376	-45.000000	45.000000	-45.000000	9.527817	269.059750	-1911.467006	158.975913	6.863834	1798.826994	178.721141	14.138215	14.756877	18.255877	28.544671	-45.000000	-44.999984	-45.000000	4030.357294	-7099.052525	22.581948	-180.000000	1787.910617	-297.832160	5.396856	-4.849214	
9.9100	-38.015175	5.797051	-8.204578	58.662041	794.787362	-45.259892	9.451710	-45.000000	45.000000	-45.000000	9.690177	269.289915	-1911.590391	159.054940	7.021284	1798.892183	179.334556	14.141477	14.681835	18.411931	28.479296	-45.000000	-44.999971	-45.000000	4030.134914	-7099.033327	22.588147	-180.000000	1788.217065	-295.425641	5.627618	-4.824275	
9.9200	-38.055504	5.857987	-8.214776	60.963589	793.237547	-45.019033	9.343001	-45.000000	45.000000	-45.000000	9.831696	269.524610	-1911.706117	159.146806	7.207875	1798.955324	179.902229	14.146115	14.605227	18.563011	28.415130	-45.000000	-44.999948	-45.000000	4029.906553	-7099.023228	22.584883	-180.000000	1788.534286	-292.928178	5.884726	-4.832401	
9.9300	-38.093842	5.903061	-8.198064	63.205713	791.705240	-44.763708	9.244986	-45.000000	45.000000	-45.000000	9.942561	269.747782	-1911.821550	159.241680	7.421907	1799.026622	180.407594	14.149200	14.525081	18.705161	28.349528	-45.000000	-44.999907	-45.000000	4029.678049	-7099.031985	22.575160	-180.000000	1788.864966	-290.323390	6.153385	-4.859617	
9.9400	-38.126695	5.937646	-8.162839	65.387536	790.200668	-44.496044	9.142647	-45.000000	45.000000	-45.000000	10.030829	269.965269	-1911.933237	159.341674	7.671238	1799.105058	180.838956	14.150459	14.439723	18.837845	28.284419	-45.000000	-44.999833	-45.000000	4029.448480	-7099.052464	22.559337	-180.000000	1789.213196	-287.592929	6.439317	-4.917460	
